<svg width="16" height="16" viewBox="0 0 16 16" fill="none" xmlns="http://www.w3.org/2000/svg">
<path opacity="0.7" fill-rule="evenodd" clip-rule="evenodd" d="M13.008 11.4415C13.8803 10.2503 14.402 8.78712 14.402 7.20106C14.402 3.23057 11.1716 0 7.20108 0C3.23055 0 0 3.23057 0 7.20106C0 11.1715 3.23055 14.402 7.20108 14.402C8.78723 14.402 10.2505 13.8803 11.4416 13.008L14.4281 15.9944L15.9947 14.428L13.008 11.4415ZM7.20108 12.1863C4.45197 12.1863 2.2158 9.95003 2.2158 7.20106C2.2158 4.45206 4.45197 2.21568 7.20108 2.21568C9.95017 2.21568 12.1864 4.45206 12.1864 7.20106C12.1864 9.95003 9.95017 12.1863 7.20108 12.1863Z" fill="#6B7280"/>
</svg>
